<svg width="16" height="16" viewBox="0 0 16 16" fill="none" xmlns="http://www.w3.org/2000/svg">
<path d="M1.78 8.744V4.64H3.34V8.576C3.34 8.976 3.416 9.26 3.568 9.428C3.72 9.596 3.964 9.68 4.3 9.68C4.676 9.68 4.98 9.584 5.212 9.392C5.444 9.192 5.56 8.88 5.56 8.456V4.64H7.12V11H5.632V10.388H5.608C5.216 10.916 4.664 11.18 3.952 11.18C3.216 11.18 2.668 10.96 2.308 10.52C1.956 10.08 1.78 9.488 1.78 8.744ZM8.08094 11L10.2889 7.712L8.21294 4.64H9.83294L11.2609 6.776H11.2849L12.7129 4.64H14.3329L12.2569 7.712L14.4649 11H12.7969L11.2849 8.72H11.2609L9.74894 11H8.08094Z" fill="#464FA5"/>
<line x1="1.5" y1="14.5" x2="14.5" y2="14.5" stroke="#464FA5" stroke-linecap="round"/>
<line x1="1.5" y1="1.5" x2="14.5" y2="1.5" stroke="#464FA5" stroke-linecap="round"/>
</svg>
